<mxfile host="app.diagrams.net" agent="Mozilla/5.0 (Windows NT 10.0; Win64; x64) AppleWebKit/537.36 (KHTML, like Gecko) Chrome/140.0.0.0 Safari/537.36" version="26.2.14">
  <diagram id="C5RBs43oDa-KdzZeNtuy" name="Page-1">
    <mxGraphModel dx="1603" dy="811" grid="1" gridSize="10" guides="1" tooltips="1" connect="1" arrows="1" fold="1" page="1" pageScale="1" pageWidth="827" pageHeight="1169" math="0" shadow="0">
      <root>
        <mxCell id="WIyWlLk6GJQsqaUBKTNV-0" />
        <mxCell id="WIyWlLk6GJQsqaUBKTNV-1" parent="WIyWlLk6GJQsqaUBKTNV-0" />
        <mxCell id="WIyWlLk6GJQsqaUBKTNV-2" value="" style="rounded=0;html=1;jettySize=auto;orthogonalLoop=1;fontSize=11;endArrow=block;endFill=0;endSize=8;strokeWidth=1;shadow=0;labelBackgroundColor=none;edgeStyle=orthogonalEdgeStyle;" parent="WIyWlLk6GJQsqaUBKTNV-1" source="WIyWlLk6GJQsqaUBKTNV-3" target="WIyWlLk6GJQsqaUBKTNV-6" edge="1">
          <mxGeometry relative="1" as="geometry" />
        </mxCell>
        <mxCell id="WIyWlLk6GJQsqaUBKTNV-3" value="Lamp doesn&#39;t work" style="rounded=1;whiteSpace=wrap;html=1;fontSize=12;glass=0;strokeWidth=1;shadow=0;" parent="WIyWlLk6GJQsqaUBKTNV-1" vertex="1">
          <mxGeometry x="160" y="80" width="120" height="40" as="geometry" />
        </mxCell>
        <mxCell id="WIyWlLk6GJQsqaUBKTNV-4" value="Yes" style="rounded=0;html=1;jettySize=auto;orthogonalLoop=1;fontSize=11;endArrow=block;endFill=0;endSize=8;strokeWidth=1;shadow=0;labelBackgroundColor=none;edgeStyle=orthogonalEdgeStyle;" parent="WIyWlLk6GJQsqaUBKTNV-1" source="WIyWlLk6GJQsqaUBKTNV-6" target="WIyWlLk6GJQsqaUBKTNV-10" edge="1">
          <mxGeometry y="20" relative="1" as="geometry">
            <mxPoint as="offset" />
          </mxGeometry>
        </mxCell>
        <mxCell id="WIyWlLk6GJQsqaUBKTNV-5" value="No" style="edgeStyle=orthogonalEdgeStyle;rounded=0;html=1;jettySize=auto;orthogonalLoop=1;fontSize=11;endArrow=block;endFill=0;endSize=8;strokeWidth=1;shadow=0;labelBackgroundColor=none;" parent="WIyWlLk6GJQsqaUBKTNV-1" source="WIyWlLk6GJQsqaUBKTNV-6" target="WIyWlLk6GJQsqaUBKTNV-7" edge="1">
          <mxGeometry y="10" relative="1" as="geometry">
            <mxPoint as="offset" />
          </mxGeometry>
        </mxCell>
        <mxCell id="WIyWlLk6GJQsqaUBKTNV-6" value="Lamp&lt;br&gt;plugged in?" style="rhombus;whiteSpace=wrap;html=1;shadow=0;fontFamily=Helvetica;fontSize=12;align=center;strokeWidth=1;spacing=6;spacingTop=-4;" parent="WIyWlLk6GJQsqaUBKTNV-1" vertex="1">
          <mxGeometry x="170" y="170" width="100" height="80" as="geometry" />
        </mxCell>
        <mxCell id="WIyWlLk6GJQsqaUBKTNV-7" value="Plug in lamp" style="rounded=1;whiteSpace=wrap;html=1;fontSize=12;glass=0;strokeWidth=1;shadow=0;" parent="WIyWlLk6GJQsqaUBKTNV-1" vertex="1">
          <mxGeometry x="320" y="190" width="120" height="40" as="geometry" />
        </mxCell>
        <mxCell id="WIyWlLk6GJQsqaUBKTNV-8" value="No" style="rounded=0;html=1;jettySize=auto;orthogonalLoop=1;fontSize=11;endArrow=block;endFill=0;endSize=8;strokeWidth=1;shadow=0;labelBackgroundColor=none;edgeStyle=orthogonalEdgeStyle;" parent="WIyWlLk6GJQsqaUBKTNV-1" source="WIyWlLk6GJQsqaUBKTNV-10" target="WIyWlLk6GJQsqaUBKTNV-11" edge="1">
          <mxGeometry x="0.3333" y="20" relative="1" as="geometry">
            <mxPoint as="offset" />
          </mxGeometry>
        </mxCell>
        <mxCell id="WIyWlLk6GJQsqaUBKTNV-9" value="Yes" style="edgeStyle=orthogonalEdgeStyle;rounded=0;html=1;jettySize=auto;orthogonalLoop=1;fontSize=11;endArrow=block;endFill=0;endSize=8;strokeWidth=1;shadow=0;labelBackgroundColor=none;" parent="WIyWlLk6GJQsqaUBKTNV-1" source="WIyWlLk6GJQsqaUBKTNV-10" target="WIyWlLk6GJQsqaUBKTNV-12" edge="1">
          <mxGeometry y="10" relative="1" as="geometry">
            <mxPoint as="offset" />
          </mxGeometry>
        </mxCell>
        <mxCell id="WIyWlLk6GJQsqaUBKTNV-10" value="Bulb&lt;br&gt;burned out?" style="rhombus;whiteSpace=wrap;html=1;shadow=0;fontFamily=Helvetica;fontSize=12;align=center;strokeWidth=1;spacing=6;spacingTop=-4;" parent="WIyWlLk6GJQsqaUBKTNV-1" vertex="1">
          <mxGeometry x="170" y="290" width="100" height="80" as="geometry" />
        </mxCell>
        <mxCell id="WIyWlLk6GJQsqaUBKTNV-11" value="Repair Lamp" style="rounded=1;whiteSpace=wrap;html=1;fontSize=12;glass=0;strokeWidth=1;shadow=0;" parent="WIyWlLk6GJQsqaUBKTNV-1" vertex="1">
          <mxGeometry x="160" y="430" width="120" height="40" as="geometry" />
        </mxCell>
        <mxCell id="WIyWlLk6GJQsqaUBKTNV-12" value="Replace Bulb" style="rounded=1;whiteSpace=wrap;html=1;fontSize=12;glass=0;strokeWidth=1;shadow=0;" parent="WIyWlLk6GJQsqaUBKTNV-1" vertex="1">
          <mxGeometry x="320" y="310" width="120" height="40" as="geometry" />
        </mxCell>
        <mxCell id="N6oO5OgBBl0GnmpNIQX6-0" value="Prescription Image&#xa;(photo / scan)" style="whiteSpace=wrap;strokeWidth=2;" vertex="1" parent="WIyWlLk6GJQsqaUBKTNV-1">
          <mxGeometry x="160" y="980" width="260" height="78" as="geometry" />
        </mxCell>
        <mxCell id="N6oO5OgBBl0GnmpNIQX6-1" value="Preprocessing&#xa;(de-noise, de-skew, crop, anonymize)" style="whiteSpace=wrap;strokeWidth=2;" vertex="1" parent="WIyWlLk6GJQsqaUBKTNV-1">
          <mxGeometry x="470" y="910" width="260" height="78" as="geometry" />
        </mxCell>
        <mxCell id="N6oO5OgBBl0GnmpNIQX6-2" value="Text Detection + OCR&#xa;(printed + handwriting)" style="whiteSpace=wrap;strokeWidth=2;" vertex="1" parent="WIyWlLk6GJQsqaUBKTNV-1">
          <mxGeometry x="780" y="782" width="260" height="102" as="geometry" />
        </mxCell>
        <mxCell id="N6oO5OgBBl0GnmpNIQX6-3" value="Entity Extraction&#xa;(NER: medications, dose, freq)" style="whiteSpace=wrap;strokeWidth=2;" vertex="1" parent="WIyWlLk6GJQsqaUBKTNV-1">
          <mxGeometry x="1090" y="718" width="260" height="78" as="geometry" />
        </mxCell>
        <mxCell id="N6oO5OgBBl0GnmpNIQX6-4" value="Normalization&#xa;(map to RxNorm / DrugBank IDs)" style="whiteSpace=wrap;strokeWidth=2;" vertex="1" parent="WIyWlLk6GJQsqaUBKTNV-1">
          <mxGeometry x="1400" y="718" width="260" height="78" as="geometry" />
        </mxCell>
        <mxCell id="N6oO5OgBBl0GnmpNIQX6-5" value="Knowledge Graph Enrichment&#xa;(side-effects, DDIs, enzymes, contraindications)" style="whiteSpace=wrap;strokeWidth=2;" vertex="1" parent="WIyWlLk6GJQsqaUBKTNV-1">
          <mxGeometry x="1710" y="694" width="260" height="126" as="geometry" />
        </mxCell>
        <mxCell id="N6oO5OgBBl0GnmpNIQX6-6" value="LLM Synthesizer&#xa;(prompt + KG facts)" style="whiteSpace=wrap;strokeWidth=2;" vertex="1" parent="WIyWlLk6GJQsqaUBKTNV-1">
          <mxGeometry x="2020" y="654" width="260" height="78" as="geometry" />
        </mxCell>
        <mxCell id="N6oO5OgBBl0GnmpNIQX6-7" value="Post-filter &amp; Risk Scoring&#xa;(rule-based checks, severity threshold)" style="whiteSpace=wrap;strokeWidth=2;" vertex="1" parent="WIyWlLk6GJQsqaUBKTNV-1">
          <mxGeometry x="2330" y="566" width="260" height="102" as="geometry" />
        </mxCell>
        <mxCell id="N6oO5OgBBl0GnmpNIQX6-8" value="Final Output&#xa;(JSON report, formatted text, visual alerts)" style="whiteSpace=wrap;strokeWidth=2;" vertex="1" parent="WIyWlLk6GJQsqaUBKTNV-1">
          <mxGeometry x="2640" y="490" width="260" height="102" as="geometry" />
        </mxCell>
        <mxCell id="N6oO5OgBBl0GnmpNIQX6-9" value="Top-K Candidates&#xa;(from OCR/NER)" style="whiteSpace=wrap;strokeWidth=2;" vertex="1" parent="WIyWlLk6GJQsqaUBKTNV-1">
          <mxGeometry x="1090" y="846" width="260" height="78" as="geometry" />
        </mxCell>
        <mxCell id="N6oO5OgBBl0GnmpNIQX6-10" value="Provenance&#xa;(source links, evidence count)" style="whiteSpace=wrap;strokeWidth=2;" vertex="1" parent="WIyWlLk6GJQsqaUBKTNV-1">
          <mxGeometry x="2020" y="782" width="260" height="78" as="geometry" />
        </mxCell>
        <mxCell id="N6oO5OgBBl0GnmpNIQX6-11" value="KG Cache / Neo4j" style="whiteSpace=wrap;strokeWidth=2;" vertex="1" parent="WIyWlLk6GJQsqaUBKTNV-1">
          <mxGeometry x="2056" y="934" width="188" height="54" as="geometry" />
        </mxCell>
        <mxCell id="N6oO5OgBBl0GnmpNIQX6-12" value="External APIs&#xa;(DrugBank, SIDER, ChEMBL)" style="whiteSpace=wrap;strokeWidth=2;" vertex="1" parent="WIyWlLk6GJQsqaUBKTNV-1">
          <mxGeometry x="2330" y="922" width="260" height="78" as="geometry" />
        </mxCell>
        <mxCell id="N6oO5OgBBl0GnmpNIQX6-13" value="Human-in-the-loop UI&#xa;(validate / correct / feedback)" style="whiteSpace=wrap;strokeWidth=2;" vertex="1" parent="WIyWlLk6GJQsqaUBKTNV-1">
          <mxGeometry x="2640" y="642" width="260" height="102" as="geometry" />
        </mxCell>
        <mxCell id="N6oO5OgBBl0GnmpNIQX6-14" value="Image Quality Check&#xa;(auto reject low-conf)" style="whiteSpace=wrap;strokeWidth=2;" vertex="1" parent="WIyWlLk6GJQsqaUBKTNV-1">
          <mxGeometry x="470" y="1038" width="260" height="102" as="geometry" />
        </mxCell>
        <mxCell id="N6oO5OgBBl0GnmpNIQX6-15" value="PHI Masking / Encryption" style="whiteSpace=wrap;strokeWidth=2;" vertex="1" parent="WIyWlLk6GJQsqaUBKTNV-1">
          <mxGeometry x="791" y="934" width="239" height="54" as="geometry" />
        </mxCell>
        <mxCell id="N6oO5OgBBl0GnmpNIQX6-16" value="Prompt Template&#xa;(system + examples + structured facts)" style="whiteSpace=wrap;strokeWidth=2;" vertex="1" parent="WIyWlLk6GJQsqaUBKTNV-1">
          <mxGeometry x="2330" y="718" width="260" height="102" as="geometry" />
        </mxCell>
        <mxCell id="N6oO5OgBBl0GnmpNIQX6-17" value="Logging &amp; Audit Trail" style="whiteSpace=wrap;strokeWidth=2;" vertex="1" parent="WIyWlLk6GJQsqaUBKTNV-1">
          <mxGeometry x="2950" y="590" width="208" height="54" as="geometry" />
        </mxCell>
        <mxCell id="N6oO5OgBBl0GnmpNIQX6-18" value="" style="curved=1;startArrow=none;endArrow=block;exitX=0.83;exitY=0;entryX=0;entryY=0.5;rounded=0;" edge="1" parent="WIyWlLk6GJQsqaUBKTNV-1" source="N6oO5OgBBl0GnmpNIQX6-0" target="N6oO5OgBBl0GnmpNIQX6-1">
          <mxGeometry relative="1" as="geometry">
            <Array as="points">
              <mxPoint x="445" y="949" />
            </Array>
          </mxGeometry>
        </mxCell>
        <mxCell id="N6oO5OgBBl0GnmpNIQX6-19" value="" style="curved=1;startArrow=none;endArrow=block;exitX=0.7;exitY=0;entryX=0;entryY=0.5;rounded=0;" edge="1" parent="WIyWlLk6GJQsqaUBKTNV-1" source="N6oO5OgBBl0GnmpNIQX6-1" target="N6oO5OgBBl0GnmpNIQX6-2">
          <mxGeometry relative="1" as="geometry">
            <Array as="points">
              <mxPoint x="755" y="833" />
            </Array>
          </mxGeometry>
        </mxCell>
        <mxCell id="N6oO5OgBBl0GnmpNIQX6-20" value="" style="curved=1;startArrow=none;endArrow=block;exitX=0.9;exitY=0;entryX=0;entryY=0.5;rounded=0;" edge="1" parent="WIyWlLk6GJQsqaUBKTNV-1" source="N6oO5OgBBl0GnmpNIQX6-2" target="N6oO5OgBBl0GnmpNIQX6-3">
          <mxGeometry relative="1" as="geometry">
            <Array as="points">
              <mxPoint x="1065" y="757" />
            </Array>
          </mxGeometry>
        </mxCell>
        <mxCell id="N6oO5OgBBl0GnmpNIQX6-21" value="" style="curved=1;startArrow=none;endArrow=block;exitX=1;exitY=0.5;entryX=0;entryY=0.5;rounded=0;" edge="1" parent="WIyWlLk6GJQsqaUBKTNV-1" source="N6oO5OgBBl0GnmpNIQX6-3" target="N6oO5OgBBl0GnmpNIQX6-4">
          <mxGeometry relative="1" as="geometry">
            <Array as="points" />
          </mxGeometry>
        </mxCell>
        <mxCell id="N6oO5OgBBl0GnmpNIQX6-22" value="" style="curved=1;startArrow=none;endArrow=block;exitX=1;exitY=0.5;entryX=0;entryY=0.5;rounded=0;" edge="1" parent="WIyWlLk6GJQsqaUBKTNV-1" source="N6oO5OgBBl0GnmpNIQX6-4" target="N6oO5OgBBl0GnmpNIQX6-5">
          <mxGeometry relative="1" as="geometry">
            <Array as="points" />
          </mxGeometry>
        </mxCell>
        <mxCell id="N6oO5OgBBl0GnmpNIQX6-23" value="" style="curved=1;startArrow=none;endArrow=block;exitX=1;exitY=0.07;entryX=0;entryY=0.5;rounded=0;" edge="1" parent="WIyWlLk6GJQsqaUBKTNV-1" source="N6oO5OgBBl0GnmpNIQX6-5" target="N6oO5OgBBl0GnmpNIQX6-6">
          <mxGeometry relative="1" as="geometry">
            <Array as="points">
              <mxPoint x="1995" y="693" />
            </Array>
          </mxGeometry>
        </mxCell>
        <mxCell id="N6oO5OgBBl0GnmpNIQX6-24" value="" style="curved=1;startArrow=none;endArrow=block;exitX=0.81;exitY=0;entryX=0;entryY=0.5;rounded=0;" edge="1" parent="WIyWlLk6GJQsqaUBKTNV-1" source="N6oO5OgBBl0GnmpNIQX6-6" target="N6oO5OgBBl0GnmpNIQX6-7">
          <mxGeometry relative="1" as="geometry">
            <Array as="points">
              <mxPoint x="2305" y="617" />
            </Array>
          </mxGeometry>
        </mxCell>
        <mxCell id="N6oO5OgBBl0GnmpNIQX6-25" value="" style="curved=1;startArrow=none;endArrow=block;exitX=0.9;exitY=0;entryX=0;entryY=0.5;rounded=0;" edge="1" parent="WIyWlLk6GJQsqaUBKTNV-1" source="N6oO5OgBBl0GnmpNIQX6-7" target="N6oO5OgBBl0GnmpNIQX6-8">
          <mxGeometry relative="1" as="geometry">
            <Array as="points">
              <mxPoint x="2615" y="541" />
            </Array>
          </mxGeometry>
        </mxCell>
        <mxCell id="N6oO5OgBBl0GnmpNIQX6-26" value="" style="curved=1;startArrow=none;endArrow=block;exitX=1;exitY=0.93;entryX=0;entryY=0.5;rounded=0;" edge="1" parent="WIyWlLk6GJQsqaUBKTNV-1" source="N6oO5OgBBl0GnmpNIQX6-2" target="N6oO5OgBBl0GnmpNIQX6-9">
          <mxGeometry relative="1" as="geometry">
            <Array as="points">
              <mxPoint x="1065" y="885" />
            </Array>
          </mxGeometry>
        </mxCell>
        <mxCell id="N6oO5OgBBl0GnmpNIQX6-27" value="" style="curved=1;startArrow=none;endArrow=block;exitX=1;exitY=0.93;entryX=0;entryY=0.5;rounded=0;" edge="1" parent="WIyWlLk6GJQsqaUBKTNV-1" source="N6oO5OgBBl0GnmpNIQX6-5" target="N6oO5OgBBl0GnmpNIQX6-10">
          <mxGeometry relative="1" as="geometry">
            <Array as="points">
              <mxPoint x="1995" y="821" />
            </Array>
          </mxGeometry>
        </mxCell>
        <mxCell id="N6oO5OgBBl0GnmpNIQX6-28" value="" style="curved=1;startArrow=none;endArrow=block;exitX=0.68;exitY=1;entryX=0;entryY=0.5;rounded=0;" edge="1" parent="WIyWlLk6GJQsqaUBKTNV-1" source="N6oO5OgBBl0GnmpNIQX6-5" target="N6oO5OgBBl0GnmpNIQX6-11">
          <mxGeometry relative="1" as="geometry">
            <Array as="points">
              <mxPoint x="1995" y="961" />
            </Array>
          </mxGeometry>
        </mxCell>
        <mxCell id="N6oO5OgBBl0GnmpNIQX6-29" value="" style="curved=1;startArrow=none;endArrow=block;exitX=1;exitY=0.5;entryX=0;entryY=0.5;rounded=0;" edge="1" parent="WIyWlLk6GJQsqaUBKTNV-1" source="N6oO5OgBBl0GnmpNIQX6-11" target="N6oO5OgBBl0GnmpNIQX6-12">
          <mxGeometry relative="1" as="geometry">
            <Array as="points" />
          </mxGeometry>
        </mxCell>
        <mxCell id="N6oO5OgBBl0GnmpNIQX6-30" value="" style="curved=1;startArrow=none;endArrow=block;exitX=0.9;exitY=1;entryX=0;entryY=0.5;rounded=0;" edge="1" parent="WIyWlLk6GJQsqaUBKTNV-1" source="N6oO5OgBBl0GnmpNIQX6-7" target="N6oO5OgBBl0GnmpNIQX6-13">
          <mxGeometry relative="1" as="geometry">
            <Array as="points">
              <mxPoint x="2615" y="693" />
            </Array>
          </mxGeometry>
        </mxCell>
        <mxCell id="N6oO5OgBBl0GnmpNIQX6-31" value="" style="curved=1;startArrow=none;endArrow=block;exitX=0.83;exitY=1;entryX=0;entryY=0.5;rounded=0;" edge="1" parent="WIyWlLk6GJQsqaUBKTNV-1" source="N6oO5OgBBl0GnmpNIQX6-0" target="N6oO5OgBBl0GnmpNIQX6-14">
          <mxGeometry relative="1" as="geometry">
            <Array as="points">
              <mxPoint x="445" y="1089" />
            </Array>
          </mxGeometry>
        </mxCell>
        <mxCell id="N6oO5OgBBl0GnmpNIQX6-32" value="" style="curved=1;startArrow=none;endArrow=block;exitX=1;exitY=0.63;entryX=0;entryY=0.5;rounded=0;" edge="1" parent="WIyWlLk6GJQsqaUBKTNV-1" source="N6oO5OgBBl0GnmpNIQX6-1" target="N6oO5OgBBl0GnmpNIQX6-15">
          <mxGeometry relative="1" as="geometry">
            <Array as="points">
              <mxPoint x="755" y="961" />
            </Array>
          </mxGeometry>
        </mxCell>
        <mxCell id="N6oO5OgBBl0GnmpNIQX6-33" value="" style="curved=1;startArrow=none;endArrow=block;exitX=0.81;exitY=1;entryX=0;entryY=0.5;rounded=0;" edge="1" parent="WIyWlLk6GJQsqaUBKTNV-1" source="N6oO5OgBBl0GnmpNIQX6-6" target="N6oO5OgBBl0GnmpNIQX6-16">
          <mxGeometry relative="1" as="geometry">
            <Array as="points">
              <mxPoint x="2305" y="769" />
            </Array>
          </mxGeometry>
        </mxCell>
        <mxCell id="N6oO5OgBBl0GnmpNIQX6-34" value="" style="curved=1;startArrow=none;endArrow=block;exitX=1;exitY=0.5;entryX=0.28;entryY=1;rounded=0;" edge="1" parent="WIyWlLk6GJQsqaUBKTNV-1" source="N6oO5OgBBl0GnmpNIQX6-13" target="N6oO5OgBBl0GnmpNIQX6-17">
          <mxGeometry relative="1" as="geometry">
            <Array as="points">
              <mxPoint x="2925" y="693" />
            </Array>
          </mxGeometry>
        </mxCell>
        <mxCell id="N6oO5OgBBl0GnmpNIQX6-35" value="" style="curved=1;startArrow=none;endArrow=block;exitX=1;exitY=0.5;entryX=0.28;entryY=0;rounded=0;" edge="1" parent="WIyWlLk6GJQsqaUBKTNV-1" source="N6oO5OgBBl0GnmpNIQX6-8" target="N6oO5OgBBl0GnmpNIQX6-17">
          <mxGeometry relative="1" as="geometry">
            <Array as="points">
              <mxPoint x="2925" y="541" />
            </Array>
          </mxGeometry>
        </mxCell>
      </root>
    </mxGraphModel>
  </diagram>
</mxfile>
